<?xml version="1.0" encoding="UTF-8" standalone="no"?>
<!-- Created with Inkscape (http://www.inkscape.org/) -->

<svg
   xmlns:dc="http://purl.org/dc/elements/1.1/"
   xmlns:cc="http://creativecommons.org/ns#"
   xmlns:rdf="http://www.w3.org/1999/02/22-rdf-syntax-ns#"
   xmlns:svg="http://www.w3.org/2000/svg"
   xmlns="http://www.w3.org/2000/svg"
   xmlns:sodipodi="http://sodipodi.sourceforge.net/DTD/sodipodi-0.dtd"
   xmlns:inkscape="http://www.inkscape.org/namespaces/inkscape"
   width="614"
   height="420"
   id="svg3214"
   version="1.1"
   inkscape:version="0.48.2 r9819"
   sodipodi:docname="5.svg">
  <defs
     id="defs3216" />
  <sodipodi:namedview
     id="base"
     pagecolor="#ffffff"
     bordercolor="#666666"
     borderopacity="1.0"
     inkscape:pageopacity="0.0"
     inkscape:pageshadow="2"
     inkscape:zoom="0.5"
     inkscape:cx="12.040183"
     inkscape:cy="277.39732"
     inkscape:document-units="px"
     inkscape:current-layer="layer1"
     showgrid="false"
     inkscape:window-width="1280"
     inkscape:window-height="800"
     inkscape:window-x="0"
     inkscape:window-y="0"
     inkscape:window-maximized="1"
     fit-margin-top="0"
     fit-margin-left="0"
     fit-margin-right="0"
     fit-margin-bottom="0" />
  <metadata
     id="metadata3219">
    <rdf:RDF>
      <cc:Work
         rdf:about="">
        <dc:format>image/svg+xml</dc:format>
        <dc:type
           rdf:resource="http://purl.org/dc/dcmitype/StillImage" />
        <dc:title></dc:title>
      </cc:Work>
    </rdf:RDF>
  </metadata>
  <g
     inkscape:label="Layer 1"
     inkscape:groupmode="layer"
     id="layer1"
     transform="translate(1.3910784e-6,-752.36217)">
    <g
       transform="matrix(1.3094674,0,0,0.84730921,2.2190472,1.9998859)"
       style="font-size:571.6027832px;font-style:normal;font-variant:normal;font-weight:normal;font-stretch:normal;line-height:125%;letter-spacing:0px;word-spacing:0px;fill:#000000;fill-opacity:1;stroke:none;font-family:Droid Sans Fallback;-inkscape-font-specification:Droid Sans Fallback"
       id="text2999">
      <path
         d="m 467.19829,885.58258 0,495.68682 -44.65647,0 0,-31.2596 -379.579972,0 0,31.2596 -44.6564672,0 0,-495.68682 z m -424.236442,422.00362 379.579972,0 0,-379.57998 -379.579972,0 z M 143.4389,907.91081 l 42.42364,0 c -2.3e-4,114.61859 -8.55938,194.62799 -25.67746,240.02849 -17.11851,45.4009 -45.77305,81.4982 -85.963705,108.292 l -22.328233,-40.1909 c 32.747938,-23.8166 56.192558,-55.4482 70.333938,-94.895 14.14102,-39.4463 21.21162,-110.5244 21.21182,-213.23459 z m 250.07622,267.93879 0,40.1908 c -13.39738,2.9772 -27.53858,4.4658 -42.42365,4.4657 -37.21409,10e-5 -59.5423,-2.977 -66.9847,-8.9313 -11.90871,-7.4426 -17.8629,-20.8396 -17.86258,-40.1908 l 0,-263.47319 42.42364,0 0,254.54189 c -3.6e-4,5.9543 2.23246,10.42 6.69847,13.3969 4.46527,2.9773 16.37365,4.4658 35.72517,4.4657 14.88507,10e-5 29.02627,-1.4884 42.42365,-4.4657 z"
         id="path3004"
         inkscape:connector-curvature="0" />
    </g>
  </g>
</svg>
