<?xml version="1.0" encoding="UTF-8" standalone="no"?>
<!-- Created with Inkscape (http://www.inkscape.org/) -->

<svg
   xmlns:dc="http://purl.org/dc/elements/1.1/"
   xmlns:cc="http://creativecommons.org/ns#"
   xmlns:rdf="http://www.w3.org/1999/02/22-rdf-syntax-ns#"
   xmlns:svg="http://www.w3.org/2000/svg"
   xmlns="http://www.w3.org/2000/svg"
   xmlns:sodipodi="http://sodipodi.sourceforge.net/DTD/sodipodi-0.dtd"
   xmlns:inkscape="http://www.inkscape.org/namespaces/inkscape"
   width="614"
   height="420.40179"
   id="svg3214"
   version="1.1"
   inkscape:version="0.48.2 r9819"
   sodipodi:docname="6.svg">
  <defs
     id="defs3216" />
  <sodipodi:namedview
     id="base"
     pagecolor="#ffffff"
     bordercolor="#666666"
     borderopacity="1.0"
     inkscape:pageopacity="0.0"
     inkscape:pageshadow="2"
     inkscape:zoom="0.35"
     inkscape:cx="375"
     inkscape:cy="182.85714"
     inkscape:document-units="px"
     inkscape:current-layer="layer1"
     showgrid="false"
     inkscape:window-width="1280"
     inkscape:window-height="739"
     inkscape:window-x="-9"
     inkscape:window-y="-9"
     inkscape:window-maximized="1"
     fit-margin-top="0"
     fit-margin-left="0"
     fit-margin-right="0"
     fit-margin-bottom="0" />
  <metadata
     id="metadata3219">
    <rdf:RDF>
      <cc:Work
         rdf:about="">
        <dc:format>image/svg+xml</dc:format>
        <dc:type
           rdf:resource="http://purl.org/dc/dcmitype/StillImage" />
        <dc:title></dc:title>
      </cc:Work>
    </rdf:RDF>
  </metadata>
  <g
     inkscape:label="Layer 1"
     inkscape:groupmode="layer"
     id="layer1"
     transform="translate(1.3910784e-6,-751.96038)">
    <g
       transform="scale(1.1712701,0.85377401)"
       style="font-size:580.93109131px;font-style:normal;font-variant:normal;font-weight:bold;font-stretch:normal;line-height:125%;letter-spacing:0px;word-spacing:0px;fill:#000000;fill-opacity:1;stroke:none;font-family:Droid Sans Fallback;-inkscape-font-specification:Droid Sans Fallback Bold"
       id="text2999">
      <path
         d="m 519.07597,1012.4997 5.1413,52.9377 -295.92596,33.4361 0,201.858 c -2.6e-4,6.4769 2.85996,10.8588 8.58065,13.1457 5.72016,2.287 37.86209,3.4305 96.42591,3.4305 59.55589,0 94.45166,-3.197 104.68744,-9.5912 7.80011,-5.1885 14.06421,-31.6573 18.79233,-79.4064 l 58.53987,15.0339 c -6.13464,60.7737 -16.44973,97.6019 -30.94529,110.4847 -14.4966,12.8827 -64.85466,19.3241 -151.07435,19.3241 -76.46969,0 -119.96384,-1.7551 -130.48257,-5.2654 -22.48009,-8.0133 -33.72002,-27.432 -33.71982,-58.2562 l 0,-205.6873 L 7.51693,1121.7434 -6.5565109e-7,1068.8944 169.09548,1050.9885 l 0,-169.76913 59.19583,0 0,162.42953 z"
         style=""
         id="path3004" />
    </g>
  </g>
</svg>
