<?xml version="1.0" encoding="UTF-8" standalone="no"?>
<!-- Created with Inkscape (http://www.inkscape.org/) -->

<svg
   xmlns:dc="http://purl.org/dc/elements/1.1/"
   xmlns:cc="http://creativecommons.org/ns#"
   xmlns:rdf="http://www.w3.org/1999/02/22-rdf-syntax-ns#"
   xmlns:svg="http://www.w3.org/2000/svg"
   xmlns="http://www.w3.org/2000/svg"
   xmlns:sodipodi="http://sodipodi.sourceforge.net/DTD/sodipodi-0.dtd"
   xmlns:inkscape="http://www.inkscape.org/namespaces/inkscape"
   width="920"
   height="800"
   id="svg2"
   version="1.1"
   inkscape:version="0.48.2 r9819"
   sodipodi:docname="BASE.svg">
  <defs
     id="defs4" />
  <sodipodi:namedview
     id="base"
     pagecolor="#ffffff"
     bordercolor="#666666"
     borderopacity="1.0"
     inkscape:pageopacity="0.0"
     inkscape:pageshadow="2"
     inkscape:zoom="0.35"
     inkscape:cx="375"
     inkscape:cy="-51.428573"
     inkscape:document-units="px"
     inkscape:current-layer="flowRoot3155"
     showgrid="false"
     inkscape:window-width="1280"
     inkscape:window-height="739"
     inkscape:window-x="-9"
     inkscape:window-y="-9"
     inkscape:window-maximized="1"
     units="px" />
  <metadata
     id="metadata7">
    <rdf:RDF>
      <cc:Work
         rdf:about="">
        <dc:format>image/svg+xml</dc:format>
        <dc:type
           rdf:resource="http://purl.org/dc/dcmitype/StillImage" />
        <dc:title />
      </cc:Work>
    </rdf:RDF>
  </metadata>
  <g
     inkscape:label="Layer 1"
     inkscape:groupmode="layer"
     id="layer1"
     transform="translate(0,-252.36218)">
    <flowRoot
       xml:space="preserve"
       id="flowRoot2985"
       style="font-size:40px;font-style:normal;font-weight:normal;line-height:125%;letter-spacing:0px;word-spacing:0px;fill:#000000;fill-opacity:1;stroke:none;font-family:Sans"
       transform="translate(0,252.36218)"><flowRegion
         id="flowRegion2987"><rect
           id="rect2989"
           width="722.85712"
           height="328.57144"
           x="94.285713"
           y="77.14286" /></flowRegion><flowPara
         id="flowPara2991" /></flowRoot>    <g
       transform="matrix(7.1111111,0,0,4.719764,-805.60818,-412.38613)"
       style="font-size:144px;font-style:normal;font-variant:normal;font-weight:normal;font-stretch:normal;line-height:125%;letter-spacing:0px;word-spacing:0px;fill:#000000;fill-opacity:1;stroke:none;font-family:Droid Sans Fallback;-inkscape-font-specification:Droid Sans Fallback"
       id="flowRoot2993">
      <path
         d="m 113.03125,165.10577 29.8125,0 0,-24.1875 11.25,0 0,24.1875 43.3125,0 0,-24.1875 11.25,0 0,24.1875 33.75,0 0,10.6875 -33.75,0 0,28.6875 -11.25,0 0,-28.6875 -43.3125,0 0,28.6875 -11.25,0 0,-28.6875 -29.8125,0 z"
         id="path3005"
         inkscape:connector-curvature="0" />
    </g>
    <g
       transform="matrix(7.3381644,0,0,4.2892804,-1047.8241,-1084.0377)"
       style="font-size:144px;font-style:normal;font-variant:normal;font-weight:normal;font-stretch:normal;line-height:125%;letter-spacing:0px;word-spacing:0px;fill:#000000;fill-opacity:1;stroke:none;font-family:Droid Sans Fallback;-inkscape-font-specification:Droid Sans Fallback"
       id="flowRoot3086">
      <path
         d="m 154.04104,483.45386 c -4e-5,1.875 1.12496,3 3.375,3.375 2.24995,0.375 12.18744,0.5625 29.8125,0.5625 27.3749,0 60.19293,-0.9375 63.56805,-2.8125 3.37488,-1.875 5.43738,-6.74999 6.1875,-14.625 l 11.25,3.9375 c -2.25013,10.5 -6.00013,17.4375 -11.25,20.8125 -4.12512,2.24999 -39.00565,3.37499 -69.75555,3.375 -22.50005,-1e-5 -35.53129,-0.75001 -39.09375,-2.25 -3.56253,-1.50001 -5.34378,-4.875 -5.34375,-10.125 l 0,-89.99243 11.24994,0 c -0.23849,22.87592 6e-5,64.86418 6e-5,87.74243 z"
         id="path3098"
         inkscape:connector-curvature="0"
         sodipodi:nodetypes="cssccccsssccc" />
      <g
         transform="matrix(2.494646,0,0,2.2087312,-338.67285,-480.73803)"
         style="font-size:40px;fill:#000000;font-family:Droid Sans Fallback;-inkscape-font-specification:Droid Sans Fallback"
         id="flowRoot3155">
        <flowRoot
           xml:space="preserve"
           id="flowRoot3169"
           style="fill:black;stroke:none;stroke-opacity:1;stroke-width:1px;stroke-linejoin:miter;stroke-linecap:butt;fill-opacity:1;font-family:Droid Sans Fallback;font-style:normal;font-weight:normal;font-size:144px;line-height:125%;letter-spacing:0px;word-spacing:0px;-inkscape-font-specification:Droid Sans Fallback;font-stretch:normal;font-variant:normal"><flowRegion
             id="flowRegion3171"><rect
               id="rect3173"
               width="302.85715"
               height="197.14285"
               x="191.42857"
               y="357.14285"
               style="-inkscape-font-specification:Droid Sans Fallback;font-family:Droid Sans Fallback;font-weight:normal;font-style:normal;font-stretch:normal;font-variant:normal;font-size:144px" /></flowRegion><flowPara
             id="flowPara3175" /></flowRoot>        <flowRoot
           xml:space="preserve"
           id="flowRoot3177"
           style="fill:black;stroke:none;stroke-opacity:1;stroke-width:1px;stroke-linejoin:miter;stroke-linecap:butt;fill-opacity:1;font-family:Sans;font-style:normal;font-weight:normal;font-size:40px;line-height:125%;letter-spacing:0px;word-spacing:0px"><flowRegion
             id="flowRegion3179"><rect
               id="rect3181"
               width="245.71428"
               height="171.42857"
               x="257.14285"
               y="380" /></flowRegion><flowPara
             id="flowPara3183" /></flowRoot>        <flowRoot
           xml:space="preserve"
           id="flowRoot3185"
           style="fill:black;stroke:none;stroke-opacity:1;stroke-width:1px;stroke-linejoin:miter;stroke-linecap:butt;fill-opacity:1;font-family:Sans;font-style:normal;font-weight:normal;font-size:40px;line-height:125%;letter-spacing:0px;word-spacing:0px"><flowRegion
             id="flowRegion3187"><rect
               id="rect3189"
               width="237.14285"
               height="174.28572"
               x="214.28572"
               y="354.28571" /></flowRegion><flowPara
             id="flowPara3191" /></flowRoot>        <g
           transform="matrix(0.05462653,0,0,0.10555351,192.99888,358.71518)"
           style="font-size:144px;font-style:normal;font-variant:normal;font-weight:normal;font-stretch:normal;line-height:125%;letter-spacing:0px;word-spacing:0px;fill:#000000;fill-opacity:1;stroke:none;font-family:Droid Sans Fallback;-inkscape-font-specification:Droid Sans Fallback"
           id="flowRoot3193">
          <path
             d="m 267.27938,468.01202 130.99835,0 24.56217,-71.19992 -192.40383,0 0,-47.46663 577.21154,0 0,47.46663 -302.93372,0 -24.56219,71.19992 249.71564,0 0,137.12578 98.24876,0 0,47.46661 -614.05482,0 0,-47.46661 135.09208,0 28.65588,-89.65917 -110.52986,0 z m 163.74795,137.12578 216.96602,0 0,-89.65917 -188.31013,0 z"
             id="path3212"
             inkscape:connector-curvature="0"
             sodipodi:nodetypes="cccccccccccccccccccccccc" />
        </g>
        <g
           transform="matrix(0.19276516,0,0,0.40263809,307.35653,243.43873)"
           style="font-size:144px;font-style:normal;font-variant:normal;font-weight:normal;font-stretch:normal;line-height:125%;letter-spacing:0px;word-spacing:0px;fill:#000000;fill-opacity:1;stroke:none;font-family:Droid Sans Fallback;-inkscape-font-specification:Droid Sans Fallback"
           id="flowRoot3041">
          <path
             d="m -800.1875,316.88702 55.125,0 0,-30.375 11.8125,0 0,22.5 c -8e-5,2.62509 -0.18758,5.25009 -0.5625,7.875 l 54.5625,0 0,10.6875 -55.125,0 c -4.78846,29.94282 -17.7957,59.0088 -64.6875,88.875 l -6.1875,-10.125 c 33.37496,-21.74998 52.87494,-47.99996 58.5,-78.75 l -53.4375,0 z m 74.87237,26.67727 c 7.12493,4.50001 35.54846,33.71845 41.54854,39.71844 l -7.875,9.5625 c 0,0 -34.42361,-36.53093 -41.54854,-41.40594 z"
             id="path3052"
             inkscape:connector-curvature="0"
             sodipodi:nodetypes="ccccccccccccccccccc" />
        </g>
        <g
           transform="matrix(0.34232787,0,0,0.39862059,513.21656,299.96917)"
           style="font-size:144px;font-style:normal;font-variant:normal;font-weight:bold;font-stretch:normal;line-height:125%;letter-spacing:0px;word-spacing:0px;fill:#000000;fill-opacity:1;stroke:none;font-family:Droid Sans Fallback;-inkscape-font-specification:Droid Sans Fallback Bold"
           id="text3105">
          <path
             d="m -997.98877,280.71854 c 9.69719,6.53624 18.36906,14.54307 26.01563,24.0205 l -9.29004,10.77979 c -8.4698,-9.84366 -17.06696,-18.35732 -25.79152,-25.54102 z m -11.61913,34.19384 c 10.77239,6.48348 20.3759,14.29695 28.81054,23.44043 l -9.2461,10.25684 c -9.23736,-9.48041 -18.58454,-17.79925 -28.04154,-24.95654 z m 25.99364,34.19385 11.64112,6.94776 c -7.11044,19.19533 -17.26472,37.30371 -30.46286,54.32519 l -12.8892,-9.43066 c 12.9902,-16.43554 23.56048,-33.71628 31.71094,-51.84229 z"
             id="path3110"
             inkscape:connector-curvature="0" />
        </g>
        <flowRoot
           xml:space="preserve"
           id="flowRoot3153"
           style="fill:black;stroke:none;stroke-opacity:1;stroke-width:1px;stroke-linejoin:miter;stroke-linecap:butt;fill-opacity:1;font-family:Sans;font-style:normal;font-weight:bold;font-size:144px;line-height:125%;letter-spacing:0px;word-spacing:0px;-inkscape-font-specification:Sans Bold"><flowRegion
             id="flowRegion3155"><rect
               id="rect3157"
               width="162.85715"
               height="154.28572"
               x="-1148.5714"
               y="377.14285" /></flowRegion><flowPara
             id="flowPara3159"></flowPara></flowRoot>        <g
           transform="matrix(1.2856673,0,0,2.1799277,-30.352559,-131.36875)"
           style="font-size:30.63381577px;font-style:normal;font-variant:normal;font-weight:bold;font-stretch:normal;line-height:125%;letter-spacing:0px;word-spacing:0px;fill:#000000;fill-opacity:1;stroke:none;font-family:Droid Sans Fallback;-inkscape-font-specification:Droid Sans Fallback Bold"
           id="text3161">
          <path
             d="m 226.51204,246.54469 2.88688,0 0,1.87722 12.20192,0 0,2.82798 -12.20192,0 0,1.63041 c -9.48832,-0.065 5.81963,-0.0453 -2.88688,0 z"
             id="path3166"
             inkscape:connector-curvature="0"
             sodipodi:nodetypes="ccccccccc" />
        </g>
      </g>
    </g>
  </g>
</svg>
