<?xml version="1.0" encoding="UTF-8" standalone="no"?>
<!-- Created with Inkscape (http://www.inkscape.org/) -->

<svg
   xmlns:dc="http://purl.org/dc/elements/1.1/"
   xmlns:cc="http://creativecommons.org/ns#"
   xmlns:rdf="http://www.w3.org/1999/02/22-rdf-syntax-ns#"
   xmlns:svg="http://www.w3.org/2000/svg"
   xmlns="http://www.w3.org/2000/svg"
   xmlns:sodipodi="http://sodipodi.sourceforge.net/DTD/sodipodi-0.dtd"
   xmlns:inkscape="http://www.inkscape.org/namespaces/inkscape"
   width="920"
   height="440"
   id="svg3122"
   version="1.1"
   inkscape:version="0.48.2 r9819"
   sodipodi:docname="剔.svg">
  <defs
     id="defs3124" />
  <sodipodi:namedview
     id="base"
     pagecolor="#ffffff"
     bordercolor="#666666"
     borderopacity="1.0"
     inkscape:pageopacity="0.0"
     inkscape:pageshadow="2"
     inkscape:zoom="0.40015815"
     inkscape:cx="436.79421"
     inkscape:cy="405.47088"
     inkscape:document-units="px"
     inkscape:current-layer="layer1"
     showgrid="false"
     inkscape:window-width="1280"
     inkscape:window-height="739"
     inkscape:window-x="-9"
     inkscape:window-y="-9"
     inkscape:window-maximized="1" />
  <metadata
     id="metadata3127">
    <rdf:RDF>
      <cc:Work
         rdf:about="">
        <dc:format>image/svg+xml</dc:format>
        <dc:type
           rdf:resource="http://purl.org/dc/dcmitype/StillImage" />
        <dc:title />
      </cc:Work>
    </rdf:RDF>
  </metadata>
  <g
     inkscape:label="Layer 1"
     inkscape:groupmode="layer"
     id="layer1"
     transform="translate(0,-612.36218)">
    <g
       transform="matrix(7.4007039,0,0,3.4307992,3001.6792,1955.6933)"
       style="font-size:144px;font-style:normal;font-variant:normal;font-weight:normal;font-stretch:normal;line-height:125%;letter-spacing:0px;word-spacing:0px;fill:#000000;fill-opacity:1;stroke:none;font-family:Droid Sans Fallback;-inkscape-font-specification:Droid Sans Fallback"
       id="flowRoot3056">
      <path
         d="m -387.03125,-391.55048 95.0625,0 0,40.65341 -65.25,0 c -2.62505,3.75006 -5.62505,7.50005 -9,11.25 l 84.9375,0 c -1.3e-4,28.50002 -1.31263,58.15909 -3.9375,65.65909 -2.25012,5.99999 -7.12512,8.99999 -14.625,9 -5.25011,-1e-5 -11.6251,-0.18751 -19.125,-0.5625 l -2.8125,-11.8125 c 10.1249,0.375 17.43739,0.5625 21.9375,0.5625 2.24989,0 3.93738,-1.96875 5.0625,-5.90625 1.12488,-3.93749 1.68738,-27.31532 1.6875,-46.81534 -84.44978,-0.009 -41.71185,0 -84.375,0 -5.62503,4.50003 -12.00002,8.81253 -19.125,12.9375 l -9,-9 c 15.37498,-7.49996 27.18747,-15.93745 35.4375,-25.3125 l -16.875,0 z m 11.25,15.54545 72.5625,0 0,-5.42045 -72.5625,0 z m 0,14.98296 72.5625,0 0,-5.42046 -72.5625,0 z"
         id="path3068"
         inkscape:connector-curvature="0"
         sodipodi:nodetypes="cccccccsccscccccccccccccccccc" />
    </g>
  </g>
</svg>
