<?xml version="1.0" encoding="UTF-8" standalone="no"?>
<!-- Created with Inkscape (http://www.inkscape.org/) -->

<svg
   xmlns:dc="http://purl.org/dc/elements/1.1/"
   xmlns:cc="http://creativecommons.org/ns#"
   xmlns:rdf="http://www.w3.org/1999/02/22-rdf-syntax-ns#"
   xmlns:svg="http://www.w3.org/2000/svg"
   xmlns="http://www.w3.org/2000/svg"
   xmlns:sodipodi="http://sodipodi.sourceforge.net/DTD/sodipodi-0.dtd"
   xmlns:inkscape="http://www.inkscape.org/namespaces/inkscape"
   width="920"
   height="440"
   id="svg3122"
   version="1.1"
   inkscape:version="0.48.2 r9819"
   sodipodi:docname="挑.svg">
  <defs
     id="defs3124" />
  <sodipodi:namedview
     id="base"
     pagecolor="#ffffff"
     bordercolor="#666666"
     borderopacity="1.0"
     inkscape:pageopacity="0.0"
     inkscape:pageshadow="2"
     inkscape:zoom="0.48429199"
     inkscape:cx="377.46311"
     inkscape:cy="329.62823"
     inkscape:document-units="px"
     inkscape:current-layer="layer1"
     showgrid="false"
     inkscape:window-width="1280"
     inkscape:window-height="739"
     inkscape:window-x="-9"
     inkscape:window-y="-9"
     inkscape:window-maximized="1" />
  <metadata
     id="metadata3127">
    <rdf:RDF>
      <cc:Work
         rdf:about="">
        <dc:format>image/svg+xml</dc:format>
        <dc:type
           rdf:resource="http://purl.org/dc/dcmitype/StillImage" />
        <dc:title></dc:title>
      </cc:Work>
    </rdf:RDF>
  </metadata>
  <g
     inkscape:label="Layer 1"
     inkscape:groupmode="layer"
     id="layer1"
     transform="translate(0,-612.36218)">
    <g
       transform="matrix(7.4682902,0,0,3.3862434,4159.5354,1217.6986)"
       style="font-size:144px;font-style:normal;font-variant:normal;font-weight:normal;font-stretch:normal;line-height:125%;letter-spacing:0px;word-spacing:0px;fill:#000000;fill-opacity:1;stroke:none;font-family:Droid Sans Fallback;-inkscape-font-specification:Droid Sans Fallback"
       id="text3772">
      <path
         d="m -525.45953,-178.76341 11.25,2.8125 c -0.75005,3.37511 -1.87505,6.75011 -3.375,10.125 l 83.8125,0 c -1.3e-4,57.37505 -1.68763,91.218764 -5.0625,101.531251 -3.37513,10.312493 -9.56262,15.468737 -18.5625,15.46875 -5.6251,-1.3e-5 -12.7501,-0.562512 -21.375,-1.6875 l -2.8125,-11.25 c 11.2499,1.499999 19.31239,2.249998 24.1875,2.25 4.49989,-2e-6 7.31238,-3.562498 8.4375,-10.6875 2.62488,-12.749978 3.93738,-41.062451 3.9375,-84.937501 l -77.0625,0 c -7.87504,15.37508 -16.87503,27.75007 -27,37.125 l -7.875,-8.4375 c 13.49998,-13.87492 23.99997,-31.3124 31.5,-52.3125 z"
         id="path3777"
         inkscape:connector-curvature="0"
         sodipodi:nodetypes="cccccsccscccccc" />
    </g>
  </g>
</svg>
