<?xml version="1.0" encoding="UTF-8" standalone="no"?>
<!-- Created with Inkscape (http://www.inkscape.org/) -->

<svg
   xmlns:dc="http://purl.org/dc/elements/1.1/"
   xmlns:cc="http://creativecommons.org/ns#"
   xmlns:rdf="http://www.w3.org/1999/02/22-rdf-syntax-ns#"
   xmlns:svg="http://www.w3.org/2000/svg"
   xmlns="http://www.w3.org/2000/svg"
   xmlns:sodipodi="http://sodipodi.sourceforge.net/DTD/sodipodi-0.dtd"
   xmlns:inkscape="http://www.inkscape.org/namespaces/inkscape"
   width="445"
   height="500"
   id="svg3346"
   version="1.1"
   inkscape:version="0.48.2 r9819"
   sodipodi:docname="å.svg">
  <defs
     id="defs3348" />
  <sodipodi:namedview
     id="base"
     pagecolor="#ffffff"
     bordercolor="#666666"
     borderopacity="1.0"
     inkscape:pageopacity="0.0"
     inkscape:pageshadow="2"
     inkscape:zoom="0.35"
     inkscape:cx="510.38462"
     inkscape:cy="291.42857"
     inkscape:document-units="px"
     inkscape:current-layer="layer1"
     showgrid="false"
     inkscape:window-width="1280"
     inkscape:window-height="739"
     inkscape:window-x="-9"
     inkscape:window-y="-9"
     inkscape:window-maximized="1" />
  <metadata
     id="metadata3351">
    <rdf:RDF>
      <cc:Work
         rdf:about="">
        <dc:format>image/svg+xml</dc:format>
        <dc:type
           rdf:resource="http://purl.org/dc/dcmitype/StillImage" />
        <dc:title />
      </cc:Work>
    </rdf:RDF>
  </metadata>
  <g
     inkscape:label="Layer 1"
     inkscape:groupmode="layer"
     id="layer1"
     transform="translate(0,-552.36218)">
    <g
       transform="matrix(6.2112965,0,0,6.2112966,3327.048,-2552.678)"
       style="font-size:144px;font-style:normal;font-variant:normal;font-weight:normal;font-stretch:normal;line-height:125%;letter-spacing:0px;word-spacing:0px;fill:#000000;fill-opacity:1;stroke:none;font-family:Droid Sans Fallback;-inkscape-font-specification:Droid Sans Fallback"
       id="text3045">
      <path
         d="m -507.24591,522.85462 -3.375,5.0625 c 4.49997,3.00008 13.32038,10.561 17.44542,14.31092 l -7.875,9 c -3.75003,-4.12493 -12.19545,-11.87334 -16.32042,-14.87342 -3.00002,3.00008 -6.00002,5.81257 -9,8.4375 l -8.4375,-7.3125 c 11.62498,-9.74991 20.43748,-22.3124 26.4375,-37.6875 l 11.25,2.25 c -1.12504,3.37511 -2.43754,6.75011 -3.9375,10.125 l 36.73735,0 0,10.6875 c -7e-5,2.62509 -1.14958,11.18877 -6.02452,19.25119 -4.87505,8.06257 -10.63584,17.11709 -20.41298,24.11392 -9.76053,6.98495 -14.11507,10.48429 -27,13.94423 l -4.5,-10.6875 c 24.37497,-5.62494 39.93745,-26.74677 46.6875,-46.62184 z m 42.36235,21.9375 c -41.80752,23.73898 -20.90376,11.86949 0,0 z"
         id="path3050"
         inkscape:connector-curvature="0"
         sodipodi:nodetypes="ccccccccccccsscccccc" />
    </g>
  </g>
</svg>
