<?xml version="1.0" encoding="UTF-8" standalone="no"?>
<!-- Created with Inkscape (http://www.inkscape.org/) -->

<svg
   xmlns:dc="http://purl.org/dc/elements/1.1/"
   xmlns:cc="http://creativecommons.org/ns#"
   xmlns:rdf="http://www.w3.org/1999/02/22-rdf-syntax-ns#"
   xmlns:svg="http://www.w3.org/2000/svg"
   xmlns="http://www.w3.org/2000/svg"
   xmlns:sodipodi="http://sodipodi.sourceforge.net/DTD/sodipodi-0.dtd"
   xmlns:inkscape="http://www.inkscape.org/namespaces/inkscape"
   width="920"
   height="440"
   id="svg3122"
   version="1.1"
   inkscape:version="0.48.2 r9819"
   sodipodi:docname="托.svg">
  <defs
     id="defs3124" />
  <sodipodi:namedview
     id="base"
     pagecolor="#ffffff"
     bordercolor="#666666"
     borderopacity="1.0"
     inkscape:pageopacity="0.0"
     inkscape:pageshadow="2"
     inkscape:zoom="0.7"
     inkscape:cx="455.38882"
     inkscape:cy="312.38225"
     inkscape:document-units="px"
     inkscape:current-layer="layer1"
     showgrid="false"
     inkscape:window-width="1280"
     inkscape:window-height="739"
     inkscape:window-x="-9"
     inkscape:window-y="-9"
     inkscape:window-maximized="1" />
  <metadata
     id="metadata3127">
    <rdf:RDF>
      <cc:Work
         rdf:about="">
        <dc:format>image/svg+xml</dc:format>
        <dc:type
           rdf:resource="http://purl.org/dc/dcmitype/StillImage" />
        <dc:title></dc:title>
      </cc:Work>
    </rdf:RDF>
  </metadata>
  <g
     inkscape:label="Layer 1"
     inkscape:groupmode="layer"
     id="layer1"
     transform="translate(0,-612.36218)">
    <g
       style="font-size:144px;font-style:normal;font-variant:normal;font-weight:normal;font-stretch:normal;line-height:125%;letter-spacing:0px;word-spacing:0px;fill:#000000;fill-opacity:1;stroke:none;font-family:Droid Sans Fallback;-inkscape-font-specification:Droid Sans Fallback"
       id="text3142"
       transform="matrix(7.142164,0,0,3.6897275,2580.1706,-2123.7541)">
      <path
         d="m -328.29889,741.54968 6.1875,10.6875 c -10.5496,3.7988 -7.70511,1.2152 -18.42921,6.1875 l 0,33.1875 c 6.09846,-0.74994 11.15941,-2.09397 19.03328,-3.89659 l 1.6875,10.125 c -10.39909,2.46798 -12.12215,2.34794 -20.72078,5.02159 l 0,42.1875 c -7e-5,1.50001 1.40618,2.71876 4.21875,3.65625 2.81242,0.93751 23.28252,1.40625 33.40761,1.40625 13.49989,0 50.49893,-0.93749 53.31155,-2.8125 2.81238,-1.87499 4.78112,-8.24998 5.90625,-19.125 l 11.25,3.375 c -1.50014,13.87501 -4.87513,22.5 -10.125,25.875 -3.37512,2.25 -42.71791,3.37499 -60.3428,3.375 -16.12508,-10e-6 -37.16991,-0.9375 -40.73234,-2.8125 -3.56256,-1.875 -5.34381,-5.0625 -5.34375,-9.5625 l 0,-45 -8.33111,1.6875 -3.9375,-11.8125 12.26861,-1.125 0,-31.01932 c -4.39931,2.67379 -1.94038,1.09465 -4.36426,2.8125 l -4.5,-13.98068 c 13.44753,-3.82294 13.03174,-2.76369 29.5557,-8.4375 z"
         id="path3147"
         inkscape:connector-curvature="0"
         sodipodi:nodetypes="cccccccccsccccssccccccccc" />
    </g>
  </g>
</svg>
