<?xml version="1.0" encoding="UTF-8" standalone="no"?>
<!-- Created with Inkscape (http://www.inkscape.org/) -->

<svg
   xmlns:dc="http://purl.org/dc/elements/1.1/"
   xmlns:cc="http://creativecommons.org/ns#"
   xmlns:rdf="http://www.w3.org/1999/02/22-rdf-syntax-ns#"
   xmlns:svg="http://www.w3.org/2000/svg"
   xmlns="http://www.w3.org/2000/svg"
   xmlns:sodipodi="http://sodipodi.sourceforge.net/DTD/sodipodi-0.dtd"
   xmlns:inkscape="http://www.inkscape.org/namespaces/inkscape"
   width="920"
   height="440"
   id="svg3122"
   version="1.1"
   inkscape:version="0.48.2 r9819"
   sodipodi:docname="搯起.svg">
  <defs
     id="defs3124" />
  <sodipodi:namedview
     id="base"
     pagecolor="#ffffff"
     bordercolor="#666666"
     borderopacity="1.0"
     inkscape:pageopacity="0.0"
     inkscape:pageshadow="2"
     inkscape:zoom="0.48429199"
     inkscape:cx="377.46311"
     inkscape:cy="329.62823"
     inkscape:document-units="px"
     inkscape:current-layer="layer1"
     showgrid="false"
     inkscape:window-width="1280"
     inkscape:window-height="739"
     inkscape:window-x="-9"
     inkscape:window-y="-9"
     inkscape:window-maximized="1" />
  <metadata
     id="metadata3127">
    <rdf:RDF>
      <cc:Work
         rdf:about="">
        <dc:format>image/svg+xml</dc:format>
        <dc:type
           rdf:resource="http://purl.org/dc/dcmitype/StillImage" />
        <dc:title></dc:title>
      </cc:Work>
    </rdf:RDF>
  </metadata>
  <g
     inkscape:label="Layer 1"
     inkscape:groupmode="layer"
     id="layer1"
     transform="translate(0,-612.36218)">
    <g
       transform="matrix(7.8830856,0,0,2.151669,5305.0588,717.0342)"
       style="font-size:144px;font-style:normal;font-variant:normal;font-weight:bold;font-stretch:normal;line-height:125%;letter-spacing:0px;word-spacing:0px;fill:#000000;fill-opacity:1;stroke:none;font-family:Droid Sans Fallback;-inkscape-font-specification:Droid Sans Fallback Bold"
       id="flowRoot2999">
      <path
         d="m -672.96729,35.00909 108.59154,0 0,64.02832 -14.12402,0 0,-7.721192 -78.68675,0 0,47.126952 c -4e-5,1.46485 1.59151,2.51588 4.77465,3.15308 3.18307,0.63721 15.96601,0.95581 38.34888,0.95581 13.34464,0 20.35537,-0.16846 21.03223,-0.50537 11.66297,-0.72656 18.03211,-1.49414 19.10742,-2.30274 1.2743,-2.22362 2.52088,-9.74412 3.73975,-22.56152 l 13.92187,6.75 c -1.89271,14.88868 -4.72865,24.03369 -8.50781,27.43506 -2.98548,2.98534 -19.41661,4.47802 -49.29346,4.47803 -27.02349,-1e-5 -43.32059,-0.89577 -48.89136,-2.68726 -5.57082,-1.79151 -8.35622,-5.59351 -8.3562,-11.40601 l 0,-63.725094 92.81078,0 0,-29.729004 -94.46752,0 z"
         id="path3008"
         inkscape:connector-curvature="0"
         sodipodi:nodetypes="cccccccsscccccsscccccc" />
    </g>
    <g
       transform="matrix(7.1103867,0,0,1.3166931,3986.5938,924.94975)"
       style="font-size:144px;font-style:normal;font-variant:normal;font-weight:bold;font-stretch:normal;line-height:125%;letter-spacing:0px;word-spacing:0px;fill:#000000;fill-opacity:1;stroke:none;font-family:Droid Sans Fallback;-inkscape-font-specification:Droid Sans Fallback Bold"
       id="flowRoot3017">
      <path
         d="m -448.6377,-237.40351 7.42676,28.1007 -18.75146,3.4585 c 1.45008,24.40437 4.36658,28.63275 8.74951,43.06434 4.38269,14.43167 11.02575,28.47364 19.9292,42.12597 l -9.90527,11.80811 c -10.10461,-13.79883 -17.55993,-28.55638 -22.36597,-44.27271 -4.80625,-15.71626 -8.09849,-22.3521 -9.87671,-50.28674 -5.38193,1.08408 -11.3702,1.95566 -17.96484,2.61474 l 0,89.73865 -14.12403,0 0,-88.495 c -7.69634,0.73252 -15.85698,1.26572 -24.48193,1.59961 l 0,21.51356 c 0,24.13187 -6.64603,46.84571 -19.93799,68.1416 l -10.73144,-8.8374 c 11.03025,-19.1953 16.54538,-38.96335 16.54541,-59.3042 l 0,-49.88672 c 36.47454,-0.74989 68.3041,-4.44423 95.48876,-11.08301 z"
         id="path3026"
         inkscape:connector-curvature="0"
         sodipodi:nodetypes="cccccccccccccsccscc" />
    </g>
  </g>
</svg>
