<?xml version="1.0" encoding="UTF-8" standalone="no"?>
<!-- Created with Inkscape (http://www.inkscape.org/) -->

<svg
   xmlns:dc="http://purl.org/dc/elements/1.1/"
   xmlns:cc="http://creativecommons.org/ns#"
   xmlns:rdf="http://www.w3.org/1999/02/22-rdf-syntax-ns#"
   xmlns:svg="http://www.w3.org/2000/svg"
   xmlns="http://www.w3.org/2000/svg"
   xmlns:sodipodi="http://sodipodi.sourceforge.net/DTD/sodipodi-0.dtd"
   xmlns:inkscape="http://www.inkscape.org/namespaces/inkscape"
   width="920"
   height="440"
   id="svg3122"
   version="1.1"
   inkscape:version="0.48.2 r9819"
   sodipodi:docname="挑.svg">
  <defs
     id="defs3124" />
  <sodipodi:namedview
     id="base"
     pagecolor="#ffffff"
     bordercolor="#666666"
     borderopacity="1.0"
     inkscape:pageopacity="0.0"
     inkscape:pageshadow="2"
     inkscape:zoom="0.35"
     inkscape:cx="375"
     inkscape:cy="150.098"
     inkscape:document-units="px"
     inkscape:current-layer="layer1"
     showgrid="false"
     inkscape:window-width="643"
     inkscape:window-height="477"
     inkscape:window-x="632"
     inkscape:window-y="306"
     inkscape:window-maximized="0" />
  <metadata
     id="metadata3127">
    <rdf:RDF>
      <cc:Work
         rdf:about="">
        <dc:format>image/svg+xml</dc:format>
        <dc:type
           rdf:resource="http://purl.org/dc/dcmitype/StillImage" />
        <dc:title />
      </cc:Work>
    </rdf:RDF>
  </metadata>
  <g
     inkscape:label="Layer 1"
     inkscape:groupmode="layer"
     id="layer1"
     transform="translate(0,-612.36218)">
    <path
       style="font-size:144px;font-style:normal;font-variant:normal;font-weight:normal;font-stretch:normal;line-height:125%;letter-spacing:0px;word-spacing:0px;fill:#000000;fill-opacity:1;stroke:none;font-family:Droid Sans Fallback;-inkscape-font-specification:Droid Sans Fallback"
       d="m 66.55435,967.63144 c -2.9e-4,8.04246 -3.74485,28.86786 12.7663,30.47636 16.51051,1.6085 117.43344,2.4127 246.76903,2.4127 200.88152,0 435.70567,-4.0212 460.47277,-12.0637 24.7655,-8.0424 49.9004,-12.95256 55.4049,-46.73066 l 78.5544,6.889 c -16.5118,45.0375 -44.03,74.79446 -82.5544,89.27076 -30.2708,9.6508 -286.22985,14.4763 -511.87767,14.4763 -165.10907,0 -260.73444,-3.217 -286.87636,-9.6509 C 13.07089,1036.2774 -2.1999722e-4,1021.8011 0,999.28238 l 0,-386.00284 66.55391,0 c -1.75008,98.12124 4.4e-4,256.22066 4.4e-4,354.3519 z"
       id="path3098"
       inkscape:connector-curvature="0"
       sodipodi:nodetypes="cssccccsssccc" />
  </g>
</svg>
