<?xml version="1.0" encoding="UTF-8" standalone="no"?>
<!-- Created with Inkscape (http://www.inkscape.org/) -->

<svg
   xmlns:dc="http://purl.org/dc/elements/1.1/"
   xmlns:cc="http://creativecommons.org/ns#"
   xmlns:rdf="http://www.w3.org/1999/02/22-rdf-syntax-ns#"
   xmlns:svg="http://www.w3.org/2000/svg"
   xmlns="http://www.w3.org/2000/svg"
   xmlns:sodipodi="http://sodipodi.sourceforge.net/DTD/sodipodi-0.dtd"
   xmlns:inkscape="http://www.inkscape.org/namespaces/inkscape"
   width="920"
   height="440"
   id="svg3122"
   version="1.1"
   inkscape:version="0.48.2 r9819"
   sodipodi:docname="搯起.svg">
  <defs
     id="defs3124" />
  <sodipodi:namedview
     id="base"
     pagecolor="#ffffff"
     bordercolor="#666666"
     borderopacity="1.0"
     inkscape:pageopacity="0.0"
     inkscape:pageshadow="2"
     inkscape:zoom="0.48429199"
     inkscape:cx="377.46311"
     inkscape:cy="329.62823"
     inkscape:document-units="px"
     inkscape:current-layer="layer1"
     showgrid="false"
     inkscape:window-width="1280"
     inkscape:window-height="739"
     inkscape:window-x="-9"
     inkscape:window-y="-9"
     inkscape:window-maximized="1" />
  <metadata
     id="metadata3127">
    <rdf:RDF>
      <cc:Work
         rdf:about="">
        <dc:format>image/svg+xml</dc:format>
        <dc:type
           rdf:resource="http://purl.org/dc/dcmitype/StillImage" />
        <dc:title></dc:title>
      </cc:Work>
    </rdf:RDF>
  </metadata>
  <g
     inkscape:label="Layer 1"
     inkscape:groupmode="layer"
     id="layer1"
     transform="translate(0,-612.36218)">
    <g
       transform="matrix(7.8830856,0,0,2.151669,5305.0588,717.0342)"
       style="font-size:144px;font-style:normal;font-variant:normal;font-weight:bold;font-stretch:normal;line-height:125%;letter-spacing:0px;word-spacing:0px;fill:#000000;fill-opacity:1;stroke:none;font-family:Droid Sans Fallback;-inkscape-font-specification:Droid Sans Fallback Bold"
       id="flowRoot2999">
      <path
         d="m -672.96729,35.00909 108.59154,0 0,64.02832 -14.12402,0 0,-7.721192 -78.68675,0 0,47.126952 c -4e-5,1.46485 1.59151,2.51588 4.77465,3.15308 3.18307,0.63721 15.96601,0.95581 38.34888,0.95581 13.34464,0 20.35537,-0.16846 21.03223,-0.50537 11.66297,-0.72656 18.03211,-1.49414 19.10742,-2.30274 1.2743,-2.22362 2.52088,-9.74412 3.73975,-22.56152 l 13.92187,6.75 c -1.89271,14.88868 -4.72865,24.03369 -8.50781,27.43506 -2.98548,2.98534 -19.41661,4.47802 -49.29346,4.47803 -27.02349,-1e-5 -43.32059,-0.89577 -48.89136,-2.68726 -5.57082,-1.79151 -8.35622,-5.59351 -8.3562,-11.40601 l 0,-63.725094 92.81078,0 0,-29.729004 -94.46752,0 z"
         id="path3008"
         inkscape:connector-curvature="0"
         sodipodi:nodetypes="cccccccsscccccsscccccc" />
    </g>
    <g
       transform="matrix(2.1752067,0,0,0.70997604,-0.25088308,-384.37886)"
       style="font-size:709.67126465px;font-style:normal;font-variant:normal;font-weight:bold;font-stretch:normal;line-height:125%;letter-spacing:0px;word-spacing:0px;fill:#000000;fill-opacity:1;stroke:none;font-family:Droid Sans Fallback;-inkscape-font-specification:Droid Sans Fallback Bold"
       id="text3010">
      <path
         d="m 384.16687,1403.908 30.73192,60.8141 c -109.645,21.2248 -241.80584,34.5657 -396.482909,40.0229 L 0.11533758,1441.9601 C 128.09604,1441.9606 256.11309,1429.2766 384.16687,1403.908 z m -24.81944,81.5403 63.71622,19.1451 c -24.18481,55.7323 -52.39721,101.9853 -84.63731,138.7593 l -58.36683,-32.2047 c 35.04119,-43.401 61.47047,-85.3009 79.28792,-125.6997 z m -167.71528,13.5792 c 28.42854,29.3535 51.21215,61.7386 68.35091,97.1553 l -60.33765,25.4258 c -18.23601,-34.8392 -39.44585,-66.8416 -63.62958,-96.0074 z m -127.497395,16.308 c 26.609441,29.5557 48.404035,62.8648 65.383835,99.9275 l -60.684169,25.3825 C 52.67766,1604.0304 32.485719,1571.1183 8.2585382,1541.9092 z"
         id="path3015"
         inkscape:connector-curvature="0"
         sodipodi:nodetypes="cccccccccccccccccccc" />
    </g>
  </g>
</svg>
