<?xml version="1.0" encoding="UTF-8" standalone="no"?>
<!-- Created with Inkscape (http://www.inkscape.org/) -->

<svg
   xmlns:dc="http://purl.org/dc/elements/1.1/"
   xmlns:cc="http://creativecommons.org/ns#"
   xmlns:rdf="http://www.w3.org/1999/02/22-rdf-syntax-ns#"
   xmlns:svg="http://www.w3.org/2000/svg"
   xmlns="http://www.w3.org/2000/svg"
   xmlns:sodipodi="http://sodipodi.sourceforge.net/DTD/sodipodi-0.dtd"
   xmlns:inkscape="http://www.inkscape.org/namespaces/inkscape"
   width="920"
   height="440"
   id="svg3122"
   version="1.1"
   inkscape:version="0.48.2 r9819"
   sodipodi:docname="摘.svg">
  <defs
     id="defs3124" />
  <sodipodi:namedview
     id="base"
     pagecolor="#ffffff"
     bordercolor="#666666"
     borderopacity="1.0"
     inkscape:pageopacity="0.0"
     inkscape:pageshadow="2"
     inkscape:zoom="0.40015815"
     inkscape:cx="436.79421"
     inkscape:cy="405.47088"
     inkscape:document-units="px"
     inkscape:current-layer="layer1"
     showgrid="false"
     inkscape:window-width="1280"
     inkscape:window-height="739"
     inkscape:window-x="-9"
     inkscape:window-y="-9"
     inkscape:window-maximized="1" />
  <metadata
     id="metadata3127">
    <rdf:RDF>
      <cc:Work
         rdf:about="">
        <dc:format>image/svg+xml</dc:format>
        <dc:type
           rdf:resource="http://purl.org/dc/dcmitype/StillImage" />
        <dc:title />
      </cc:Work>
    </rdf:RDF>
  </metadata>
  <g
     inkscape:label="Layer 1"
     inkscape:groupmode="layer"
     id="layer1"
     transform="translate(0,-612.36218)">
    <g
       transform="matrix(7.5701924,0,0,3.3862434,4530.287,430.52253)"
       style="font-size:144px;font-style:normal;font-variant:normal;font-weight:normal;font-stretch:normal;line-height:125%;letter-spacing:0px;word-spacing:0px;fill:#000000;fill-opacity:1;stroke:none;font-family:Droid Sans Fallback;-inkscape-font-specification:Droid Sans Fallback"
       id="flowRoot3045">
      <path
         d="m -598.4375,66.074519 54,0 c -1.50006,-2.999892 -3.18756,-5.812389 -5.0625,-8.4375 l 11.8125,-3.9375 c 2.62493,3.750113 4.68742,7.875109 6.1875,12.375 l 54.5625,0 0,10.6875 -25.875,0 c -3.7501,6.750087 -7.5001,12.750081 -11.25,18 l 37.4038,0 0,75.375001 c -1.2e-4,4.5 -1.31262,7.87499 -3.9375,10.125 -2.62512,2.24999 -6.56261,3.37499 -11.8125,3.375 -2.62511,-1e-5 -5.8126,-0.37501 -9.5625,-1.125 l -2.25,-10.6875 c 4.8749,0.75 8.6249,1.125 11.25,1.125 3.37489,0 5.06239,-1.875 5.0625,-5.625 l 0,-62.4375 -99.29347,0 0,78.75 -11.25,0 0,-88.875001 36.01467,0 c -3.00004,-6.374917 -6.37504,-12.374911 -10.125,-18 l -25.875,0 z m 47.8125,28.6875 23.625,0 c 3.74991,-5.999918 7.12491,-11.999912 10.125,-18 l -42.75,0 c 3.37495,5.625089 6.37494,11.625083 9,18 z"
         id="path3054"
         inkscape:connector-curvature="0"
         sodipodi:nodetypes="ccccccccccccsccsccccccccccccccc" />
    </g>
  </g>
</svg>
