<?xml version="1.0" encoding="UTF-8" standalone="no"?>
<!-- Created with Inkscape (http://www.inkscape.org/) -->

<svg
   xmlns:dc="http://purl.org/dc/elements/1.1/"
   xmlns:cc="http://creativecommons.org/ns#"
   xmlns:rdf="http://www.w3.org/1999/02/22-rdf-syntax-ns#"
   xmlns:svg="http://www.w3.org/2000/svg"
   xmlns="http://www.w3.org/2000/svg"
   xmlns:sodipodi="http://sodipodi.sourceforge.net/DTD/sodipodi-0.dtd"
   xmlns:inkscape="http://www.inkscape.org/namespaces/inkscape"
   width="600"
   height="350"
   id="svg3030"
   version="1.1"
   inkscape:version="0.48.2 r9819"
   sodipodi:docname="新建文档 4">
  <defs
     id="defs3032" />
  <sodipodi:namedview
     id="base"
     pagecolor="#ffffff"
     bordercolor="#666666"
     borderopacity="1.0"
     inkscape:pageopacity="0.0"
     inkscape:pageshadow="2"
     inkscape:zoom="0.35"
     inkscape:cx="375"
     inkscape:cy="177.14286"
     inkscape:document-units="px"
     inkscape:current-layer="layer1"
     showgrid="false"
     inkscape:window-width="643"
     inkscape:window-height="477"
     inkscape:window-x="140"
     inkscape:window-y="140"
     inkscape:window-maximized="0" />
  <metadata
     id="metadata3035">
    <rdf:RDF>
      <cc:Work
         rdf:about="">
        <dc:format>image/svg+xml</dc:format>
        <dc:type
           rdf:resource="http://purl.org/dc/dcmitype/StillImage" />
        <dc:title></dc:title>
      </cc:Work>
    </rdf:RDF>
  </metadata>
  <g
     inkscape:label="Layer 1"
     inkscape:groupmode="layer"
     id="layer1"
     transform="translate(0,-702.36218)">
    <g
       style="font-size:144px;font-style:normal;font-variant:normal;font-weight:bold;font-stretch:normal;line-height:125%;letter-spacing:0px;word-spacing:0px;fill:#000000;fill-opacity:1;stroke:none;font-family:Droid Sans Fallback;-inkscape-font-specification:Droid Sans Fallback Bold"
       id="text2995"
       transform="matrix(4.6174483,0,0,2.794444,-428.89705,-353.07694)">
      <path
         d="m 98.950615,403.06161 52.395995,0 c -2.17389,-6.51552 -4.74762,-13.4911 -7.72119,-20.92675 l 14.56787,-4.44287 c 3.70012,8.40538 6.40129,16.86191 8.10352,25.36962 l 51.01611,0 0,13.28907 -118.362305,0 z m 88.545415,14.33936 15.47753,3.11572 c -5.56944,26.73052 -12.92295,49.77395 -22.06054,69.13037 l 41.91504,0 0,13.29346 -129.941898,0 0,-13.29346 72.738278,0 c 9.62687,-22.80758 16.91739,-46.88959 21.87159,-72.24609 z m -60.25782,2.20606 c 9.2519,18.65337 16.11323,39.27542 20.58399,61.86621 l -14.8667,4.92187 c -4.61723,-22.71969 -11.1724,-43.49409 -19.66553,-62.32324 z"
         id="path3004"
         inkscape:connector-curvature="0" />
    </g>
  </g>
</svg>
