<?xml version="1.0" encoding="UTF-8" standalone="no"?>
<!-- Created with Inkscape (http://www.inkscape.org/) -->

<svg
   xmlns:dc="http://purl.org/dc/elements/1.1/"
   xmlns:cc="http://creativecommons.org/ns#"
   xmlns:rdf="http://www.w3.org/1999/02/22-rdf-syntax-ns#"
   xmlns:svg="http://www.w3.org/2000/svg"
   xmlns="http://www.w3.org/2000/svg"
   xmlns:sodipodi="http://sodipodi.sourceforge.net/DTD/sodipodi-0.dtd"
   xmlns:inkscape="http://www.inkscape.org/namespaces/inkscape"
   width="600"
   height="350"
   id="svg3084"
   version="1.1"
   inkscape:version="0.48.2 r9819"
   sodipodi:docname="泛起.svg">
  <defs
     id="defs3086" />
  <sodipodi:namedview
     id="base"
     pagecolor="#ffffff"
     bordercolor="#666666"
     borderopacity="1.0"
     inkscape:pageopacity="0.0"
     inkscape:pageshadow="2"
     inkscape:zoom="0.35"
     inkscape:cx="375"
     inkscape:cy="520"
     inkscape:document-units="px"
     inkscape:current-layer="layer1"
     showgrid="false"
     inkscape:window-width="1280"
     inkscape:window-height="739"
     inkscape:window-x="-9"
     inkscape:window-y="-9"
     inkscape:window-maximized="1" />
  <metadata
     id="metadata3089">
    <rdf:RDF>
      <cc:Work
         rdf:about="">
        <dc:format>image/svg+xml</dc:format>
        <dc:type
           rdf:resource="http://purl.org/dc/dcmitype/StillImage" />
        <dc:title />
      </cc:Work>
    </rdf:RDF>
  </metadata>
  <g
     inkscape:label="Layer 1"
     inkscape:groupmode="layer"
     id="layer1"
     transform="translate(0,-702.36218)">
    <g
       transform="matrix(1.0069226,0,0,1.0322021,0.88102419,1084.6738)"
       style="font-size:144px;font-style:normal;font-variant:normal;font-weight:bold;font-stretch:normal;line-height:125%;letter-spacing:0px;word-spacing:0px;fill:#000000;fill-opacity:1;stroke:none;font-family:Droid Sans Fallback;-inkscape-font-specification:Droid Sans Fallback Bold"
       id="text3939">
      <path
         d="m 242.23451,-299.96383 c 47.94132,10.40139 91.02071,23.35767 129.2383,38.86887 l -55.63687,27.67615 c -42.63271,-15.24475 -85.34565,-29.05146 -128.13895,-41.42017 z m 270.1111,-70.42065 41.72091,34.11902 c -139.85692,16.67961 -307.947,26.99446 -504.27072,30.94459 l -26.08898,-37.03476 c 164.88115,2.9e-4 327.76061,-9.34267 488.63879,-28.02885 z"
         id="path3944"
         inkscape:connector-curvature="0"
         sodipodi:nodetypes="cccccccccc" />
    </g>
    <g
       transform="matrix(1.7743454,0,0,0.56933829,-3.8073322e-6,-10.737013)"
       style="font-size:420.22879028px;font-style:normal;font-variant:normal;font-weight:normal;font-stretch:normal;line-height:125%;letter-spacing:0px;word-spacing:0px;fill:#000000;fill-opacity:1;stroke:none;font-family:Droid Sans Fallback;-inkscape-font-specification:Droid Sans Fallback"
       id="text3954">
      <path
         d="m 2.1457672e-6,1515.969 290.5488078542328,0 0,182.2086 -32.83037,0 0,-22.9813 -219.963507,0 0,144.4537 c -9.4e-5,6.566 5.47163,10.9434 16.415187,13.1321 10.943337,2.1887 49.79257,3.283 116.54783,3.283 40.49053,0 61.83025,-0.5471 64.01923,-1.6415 35.01874,-2.1887 54.71694,-4.9245 59.09467,-8.2076 4.37703,-7.6604 8.20724,-29.5473 11.49063,-65.6607 l 32.83038,18.0567 c -5.47212,41.5851 -13.67971,67.3023 -24.62278,77.1514 -7.66079,7.6604 -55.26478,11.4906 -142.81213,11.4906 -79.887392,0 -127.491387,-2.4623 -142.81213,-7.3868 -15.320909,-4.9246 -22.9813225,-15.0473 -22.9812617,-30.3681 l 0,-203.2351 252.7938817,0 0,-61.3626 -257.7184378542328,0 z"
         id="path4008"
         inkscape:connector-curvature="0"
         sodipodi:nodetypes="cccccccsscccccsscccccc" />
    </g>
  </g>
</svg>
