<?xml version="1.0" encoding="UTF-8" standalone="no"?>
<!-- Created with Inkscape (http://www.inkscape.org/) -->

<svg
   xmlns:dc="http://purl.org/dc/elements/1.1/"
   xmlns:cc="http://creativecommons.org/ns#"
   xmlns:rdf="http://www.w3.org/1999/02/22-rdf-syntax-ns#"
   xmlns:svg="http://www.w3.org/2000/svg"
   xmlns="http://www.w3.org/2000/svg"
   xmlns:sodipodi="http://sodipodi.sourceforge.net/DTD/sodipodi-0.dtd"
   xmlns:inkscape="http://www.inkscape.org/namespaces/inkscape"
   width="920"
   height="440"
   id="svg3122"
   version="1.1"
   inkscape:version="0.48.2 r9819"
   sodipodi:docname="滾.svg">
  <defs
     id="defs3124" />
  <sodipodi:namedview
     id="base"
     pagecolor="#ffffff"
     bordercolor="#666666"
     borderopacity="1.0"
     inkscape:pageopacity="0.0"
     inkscape:pageshadow="2"
     inkscape:zoom="0.35"
     inkscape:cx="375"
     inkscape:cy="150.098"
     inkscape:document-units="px"
     inkscape:current-layer="layer1"
     showgrid="false"
     inkscape:window-width="1280"
     inkscape:window-height="739"
     inkscape:window-x="-9"
     inkscape:window-y="-9"
     inkscape:window-maximized="1" />
  <metadata
     id="metadata3127">
    <rdf:RDF>
      <cc:Work
         rdf:about="">
        <dc:format>image/svg+xml</dc:format>
        <dc:type
           rdf:resource="http://purl.org/dc/dcmitype/StillImage" />
        <dc:title></dc:title>
      </cc:Work>
    </rdf:RDF>
  </metadata>
  <g
     inkscape:label="Layer 1"
     inkscape:groupmode="layer"
     id="layer1"
     transform="translate(0,-612.36218)">
    <g
       transform="matrix(8.8888889,0,0,4.3965887,8205.0442,666.44233)"
       style="font-size:144px;font-style:normal;font-variant:normal;font-weight:normal;font-stretch:normal;line-height:125%;letter-spacing:0px;word-spacing:0px;fill:#000000;fill-opacity:1;stroke:none;font-family:Droid Sans Fallback;-inkscape-font-specification:Droid Sans Fallback"
       id="flowRoot3033">
      <path
         d="m -873.12639,-12.300481 c 3.37491,4.9792274 5.99991,10.1846333 7.875,15.6162335 l 39.9375,0 0,11.5424325 -90,0 0,-11.5424325 36.5625,0 c -1.50008,-4.0736682 -3.37508,-7.9211422 -5.625,-11.5424333 z m -17.87858,29.874533 9.5625,7.468633 c -9.75007,10.863562 -21.18755,19.463798 -34.3125,25.800734 l -7.3125,-10.1845 c 13.87495,-7.242214 24.56244,-14.937162 32.0625,-23.084867 z m 35.4375,0 c 13.12489,6.33713 25.12487,14.032078 36,23.084867 l -7.3125,10.1845 c -11.25012,-9.505444 -23.25011,-17.653036 -36,-24.4428 z"
         id="path3042"
         inkscape:connector-curvature="0"
         sodipodi:nodetypes="ccccccccccccccccccc" />
      <g
         transform="matrix(0.89767353,0,0,0.84128624,-355.53129,-290.55373)"
         style="fill:#000000;font-family:Droid Sans Fallback;-inkscape-font-specification:Droid Sans Fallback"
         id="text3044">
        <path
           d="m -575.71767,385.79924 12.81033,4.51101 c -12.58567,20.04897 -22.52951,34.33383 -35.11501,42.85462 15.73189,-2.00489 32.1381,-0.19339 49.21865,-4.7044 l -10.78766,-23.86534 10.78766,-6.01469 c 9.88853,13.53307 17.97925,28.31914 24.27219,44.35829 l -13.48456,6.76652 c -1.34858,-5.01225 -3.14652,-4.70441 -5.39381,-9.21541 -25.1713,6.01467 -51.91564,4.955 -80.23313,6.9599 l -3.37114,-11.27753 c 21.12575,-11.0269 36.46339,-27.81788 51.29648,-50.37297 z"
           id="path3049"
           inkscape:connector-curvature="0"
           sodipodi:nodetypes="cccccccccccc" />
      </g>
    </g>
  </g>
</svg>
