<?xml version="1.0" encoding="UTF-8" standalone="no"?>
<!-- Created with Inkscape (http://www.inkscape.org/) -->

<svg
   xmlns:dc="http://purl.org/dc/elements/1.1/"
   xmlns:cc="http://creativecommons.org/ns#"
   xmlns:rdf="http://www.w3.org/1999/02/22-rdf-syntax-ns#"
   xmlns:svg="http://www.w3.org/2000/svg"
   xmlns="http://www.w3.org/2000/svg"
   xmlns:sodipodi="http://sodipodi.sourceforge.net/DTD/sodipodi-0.dtd"
   xmlns:inkscape="http://www.inkscape.org/namespaces/inkscape"
   width="445"
   height="500"
   id="svg3346"
   version="1.1"
   inkscape:version="0.48.2 r9819"
   sodipodi:docname="跪.svg">
  <defs
     id="defs3348" />
  <sodipodi:namedview
     id="base"
     pagecolor="#ffffff"
     bordercolor="#666666"
     borderopacity="1.0"
     inkscape:pageopacity="0.0"
     inkscape:pageshadow="2"
     inkscape:zoom="0.35"
     inkscape:cx="510.38462"
     inkscape:cy="291.42857"
     inkscape:document-units="px"
     inkscape:current-layer="layer1"
     showgrid="false"
     inkscape:window-width="643"
     inkscape:window-height="477"
     inkscape:window-x="657"
     inkscape:window-y="126"
     inkscape:window-maximized="0" />
  <metadata
     id="metadata3351">
    <rdf:RDF>
      <cc:Work
         rdf:about="">
        <dc:format>image/svg+xml</dc:format>
        <dc:type
           rdf:resource="http://purl.org/dc/dcmitype/StillImage" />
        <dc:title />
      </cc:Work>
    </rdf:RDF>
  </metadata>
  <g
     inkscape:label="Layer 1"
     inkscape:groupmode="layer"
     id="layer1"
     transform="translate(0,-552.36218)">
    <path
       style="font-size:144px;font-style:normal;font-variant:normal;font-weight:normal;font-stretch:normal;line-height:125%;letter-spacing:0px;word-spacing:0px;fill:#000000;fill-opacity:1;stroke:none;font-family:Droid Sans Fallback;-inkscape-font-specification:Droid Sans Fallback"
       d="m 67.449468,555.67944 375.789892,0 0,187.12231 -145.62764,0 0,69.30456 140.80982,0 0,53.89289 -140.80982,0 0,100.88729 131.17418,-26.17106 14.45346,49.27258 C 321.1876,1013.0896 184.68281,1033.8809 33.724734,1052.3622 L 0,993.849 c 22.48307,-1.5401 44.966226,-3.85032 67.449468,-6.93053 l 0,-190.98322 66.356402,0 0,181.74261 97.44945,-9.2406 0,-225.63551 -163.805852,0 z m 66.356402,143.22942 247.89491,0 0,-99.33653 -247.89491,0 z M 419.15026,1033.881 c -279.36507,11.9492 -139.68249,5.9746 0,0 z"
       id="path3100"
       inkscape:connector-curvature="0"
       sodipodi:nodetypes="cccccccccccccccccccccccccccc" />
  </g>
</svg>
