<?xml version="1.0" encoding="UTF-8" standalone="no"?>
<!-- Created with Inkscape (http://www.inkscape.org/) -->

<svg
   xmlns:dc="http://purl.org/dc/elements/1.1/"
   xmlns:cc="http://creativecommons.org/ns#"
   xmlns:rdf="http://www.w3.org/1999/02/22-rdf-syntax-ns#"
   xmlns:svg="http://www.w3.org/2000/svg"
   xmlns="http://www.w3.org/2000/svg"
   xmlns:sodipodi="http://sodipodi.sourceforge.net/DTD/sodipodi-0.dtd"
   xmlns:inkscape="http://www.inkscape.org/namespaces/inkscape"
   width="600"
   height="350"
   id="svg3084"
   version="1.1"
   inkscape:version="0.48.2 r9819"
   sodipodi:docname="上.svg">
  <defs
     id="defs3086" />
  <sodipodi:namedview
     id="base"
     pagecolor="#ffffff"
     bordercolor="#666666"
     borderopacity="1.0"
     inkscape:pageopacity="0.0"
     inkscape:pageshadow="2"
     inkscape:zoom="0.35"
     inkscape:cx="375"
     inkscape:cy="520"
     inkscape:document-units="px"
     inkscape:current-layer="layer1"
     showgrid="false"
     inkscape:window-width="1280"
     inkscape:window-height="739"
     inkscape:window-x="-9"
     inkscape:window-y="-9"
     inkscape:window-maximized="1" />
  <metadata
     id="metadata3089">
    <rdf:RDF>
      <cc:Work
         rdf:about="">
        <dc:format>image/svg+xml</dc:format>
        <dc:type
           rdf:resource="http://purl.org/dc/dcmitype/StillImage" />
        <dc:title></dc:title>
      </cc:Work>
    </rdf:RDF>
  </metadata>
  <g
     inkscape:label="Layer 1"
     inkscape:groupmode="layer"
     id="layer1"
     transform="translate(0,-702.36218)">
    <path
       style="font-size:551.16137695px;font-style:normal;font-variant:normal;font-weight:bold;font-stretch:normal;line-height:125%;letter-spacing:0px;word-spacing:0px;fill:#000000;fill-opacity:1;stroke:none;font-family:Droid Sans Fallback;-inkscape-font-specification:Droid Sans Fallback Bold"
       inkscape:connector-curvature="0"
       d="m 480.94412,702.36216 0,191.95166 -209.09406,0 c 20.36288,22.48817 47.79161,41.87489 82.28624,58.16008 42.29961,-16.61941 80.23393,-35.03203 113.80308,-55.23802 l 65.27826,19.90426 c -42.33159,26.04197 -82.98874,45.286 -121.97154,57.73224 39.58444,12.95164 102.50236,26.49422 188.75391,40.62772 L 563.994,1052.3622 C 363.24531,1019.0416 240.78023,966.35893 196.59841,894.31382 l -122.226085,0 0,108.78888 C 143.37588,997.02226 209.54883,990.37522 272.89136,983.16173 l 13.46754,35.93287 c -73.90985,9.8706 -159.04996,18.4005 -255.420568,25.5895 L 0,1026.8583 0,702.36216 z m -406.571795,36.98433 0,42.80399 332.199475,0 0,-42.80399 z m 0,76.71953 0,41.27572 332.199475,0 0,-41.27572 z"
       id="path3135" />
  </g>
</svg>
