<?xml version="1.0" encoding="UTF-8" standalone="no"?>
<!-- Created with Inkscape (http://www.inkscape.org/) -->

<svg
   xmlns:dc="http://purl.org/dc/elements/1.1/"
   xmlns:cc="http://creativecommons.org/ns#"
   xmlns:rdf="http://www.w3.org/1999/02/22-rdf-syntax-ns#"
   xmlns:svg="http://www.w3.org/2000/svg"
   xmlns="http://www.w3.org/2000/svg"
   xmlns:sodipodi="http://sodipodi.sourceforge.net/DTD/sodipodi-0.dtd"
   xmlns:inkscape="http://www.inkscape.org/namespaces/inkscape"
   width="600"
   height="350"
   id="svg3084"
   version="1.1"
   inkscape:version="0.48.2 r9819"
   sodipodi:docname="上.svg">
  <defs
     id="defs3086" />
  <sodipodi:namedview
     id="base"
     pagecolor="#ffffff"
     bordercolor="#666666"
     borderopacity="1.0"
     inkscape:pageopacity="0.0"
     inkscape:pageshadow="2"
     inkscape:zoom="0.35"
     inkscape:cx="375"
     inkscape:cy="520"
     inkscape:document-units="px"
     inkscape:current-layer="layer1"
     showgrid="false"
     inkscape:window-width="1280"
     inkscape:window-height="739"
     inkscape:window-x="-9"
     inkscape:window-y="-9"
     inkscape:window-maximized="1" />
  <metadata
     id="metadata3089">
    <rdf:RDF>
      <cc:Work
         rdf:about="">
        <dc:format>image/svg+xml</dc:format>
        <dc:type
           rdf:resource="http://purl.org/dc/dcmitype/StillImage" />
        <dc:title></dc:title>
      </cc:Work>
    </rdf:RDF>
  </metadata>
  <g
     inkscape:label="Layer 1"
     inkscape:groupmode="layer"
     id="layer1"
     transform="translate(0,-702.36218)">
    <g
       transform="matrix(6.1950787,0,0,3.2864754,4773.3996,1801.1777)"
       style="font-size:144px;font-style:normal;font-variant:normal;font-weight:bold;font-stretch:normal;line-height:125%;letter-spacing:0px;word-spacing:0px;fill:#000000;fill-opacity:1;stroke:none;font-family:Droid Sans Fallback;-inkscape-font-specification:Droid Sans Fallback Bold"
       id="text2999">
      <path
         d="m -743.49719,-334.34467 12.47607,3.87598 c -1.91902,6.07042 -3.94197,10.66124 -6.06885,13.77246 l 20.62354,0 c -1.42392,-3.51259 -3.2623,-7.7284 -5.51514,-12.64746 l 13.2583,-3.89795 c 3.82607,5.7716 6.5624,11.28673 8.20899,16.54541 l 26.85058,0 0,12.73975 -31.43847,0 0,11.52685 27.02636,0 0,12.73975 -27.02636,0 0,13.1792 27.02636,0 0,12.73974 -27.02636,0 0,13.1836 31.43847,0 0,12.73974 -79.75634,0 0,-62.32324 c -0.59186,3.49812 -2.7481,7.35944 -6.46875,11.58399 l -10.62598,-7.78272 c 11.85347,-14.54581 20.85932,-30.53749 27.01758,-47.9751 z m 24.8247,41.91504 0,-11.52685 -21.17285,0 0,11.52685 z m 0,25.91895 0,-13.1792 -21.17285,0 0,13.1792 z m -21.17285,12.73974 0,13.1836 21.17285,0 0,-13.1836 z"
         id="path3004"
         inkscape:connector-curvature="0"
         sodipodi:nodetypes="ccccccccccccccccccccccccccccccccccccccccc" />
    </g>
  </g>
</svg>
