<?xml version="1.0" encoding="UTF-8" standalone="no"?>
<!-- Created with Inkscape (http://www.inkscape.org/) -->

<svg
   xmlns:dc="http://purl.org/dc/elements/1.1/"
   xmlns:cc="http://creativecommons.org/ns#"
   xmlns:rdf="http://www.w3.org/1999/02/22-rdf-syntax-ns#"
   xmlns:svg="http://www.w3.org/2000/svg"
   xmlns="http://www.w3.org/2000/svg"
   xmlns:sodipodi="http://sodipodi.sourceforge.net/DTD/sodipodi-0.dtd"
   xmlns:inkscape="http://www.inkscape.org/namespaces/inkscape"
   width="600"
   height="350"
   id="svg3030"
   version="1.1"
   inkscape:version="0.48.2 r9819"
   sodipodi:docname="雙.svg">
  <defs
     id="defs3032" />
  <sodipodi:namedview
     id="base"
     pagecolor="#ffffff"
     bordercolor="#666666"
     borderopacity="1.0"
     inkscape:pageopacity="0.0"
     inkscape:pageshadow="2"
     inkscape:zoom="0.35"
     inkscape:cx="375"
     inkscape:cy="405.71429"
     inkscape:document-units="px"
     inkscape:current-layer="layer1"
     showgrid="false"
     inkscape:window-width="1280"
     inkscape:window-height="739"
     inkscape:window-x="-9"
     inkscape:window-y="-9"
     inkscape:window-maximized="1" />
  <metadata
     id="metadata3035">
    <rdf:RDF>
      <cc:Work
         rdf:about="">
        <dc:format>image/svg+xml</dc:format>
        <dc:type
           rdf:resource="http://purl.org/dc/dcmitype/StillImage" />
        <dc:title></dc:title>
      </cc:Work>
    </rdf:RDF>
  </metadata>
  <g
     inkscape:label="Layer 1"
     inkscape:groupmode="layer"
     id="layer1"
     transform="translate(0,-702.36218)">
    <g
       transform="matrix(4.5785827,0,0,2.8445458,2648.9043,1603.9382)"
       style="font-size:144px;font-style:normal;font-variant:normal;font-weight:normal;font-stretch:normal;line-height:125%;letter-spacing:0px;word-spacing:0px;fill:#000000;fill-opacity:1;stroke:none;font-family:Droid Sans Fallback;-inkscape-font-specification:Droid Sans Fallback"
       id="text3051">
      <path
         d="m -576.33636,-316.94901 56.03906,0 c -1.49421,25.75497 -5.35553,47.48737 -11.58399,65.19727 6.47455,9.22855 12.54193,18.92874 18.20215,29.10059 l -10.77978,9.99316 c -5.00983,-8.86815 -9.55816,-16.95701 -13.64502,-24.2666 -7.06645,17.6631 -17.95902,31.81787 -32.67774,42.46435 l -7.76074,-11.62793 c 13.73728,-10.64061 24.0322,-25.18796 30.88477,-43.64209 -8.66019,-12.46869 -18.03664,-24.90227 -28.1294,-37.30078 l 10.03272,-7.85742 c 9.22555,10.42098 17.07564,20.53132 23.55029,30.33106 2.62202,-8.45209 4.66401,-21.30168 6.12598,-38.54883 l -40.2583,0 z m 57.90673,0 64.31397,0 c -2.23255,31.32723 -9.03528,57.88482 -20.4082,79.67286 6.79675,11.25002 15.80553,21.45704 27.02636,30.62109 l -7.09277,12.74854 c -11.80676,-8.03028 -21.19347,-18.32519 -28.16016,-30.88477 -6.9083,11.48438 -17.31893,21.59472 -31.23193,30.33105 l -8.30566,-11.70703 c 13.8339,-8.84179 24.31192,-19.38719 31.43408,-31.63623 -9.91415,-18.86128 -16.83846,-40.62883 -20.77295,-65.30273 l -6.80274,0 z m 20.74219,13.84278 c 2.91202,17.96199 7.89834,35.22369 14.95899,51.78515 6.36317,-15.47162 10.64051,-32.73332 12.83203,-51.78515 z"
         style="font-weight:bold;-inkscape-font-specification:Droid Sans Fallback Bold"
         id="path3056"
         inkscape:connector-curvature="0" />
    </g>
  </g>
</svg>
